<?xml version="1.0" encoding="UTF-8"?>
<svg id="Layer_1" xmlns="http://www.w3.org/2000/svg" baseProfile="tiny-ps" version="1.2" viewBox="0 0 2000 2000">
  <rect  width="96" height="96" fill="#fff"/>
<title>Shucking Good Hospitality</title>
  <path d="M1757.1,438c7,2,15,24,15,35s-12,44-44,121.1c-28,65.1-89.1,223.2-89.1,229.2s2,5,8,3c4-2,40-2,79.1-2,77.1,0,107.1,3,151.1,18,26,9,58,30,69.1,47,20,28,28,70.1,20,103.1-7,28-28,70.1-51,106.1-77.1,118.1-226.2,268.2-308.3,311.3-31,16-49,19-70.1,8-44-21-68.1-67.1-69.1-133.1,0-70.1,35-218.2,90.1-382.3l17-52-11,2c-65.1,11-190.2,40-199.2,46-9,5-66.1,168.1-82.1,232.2-10,40-25,84.1-29,89.1-4,6-14,7-20,3-7-4-10-19-10-40,0-36,20-104.1,60-213.2,10-28,18-51,17-52-1-2-92.1,30-101.1,34-3,2-8,10-11,19-3,9-17,42-32,73.1-31,69.1-43,98.1-64.1,166.1-16,49-28,98.1-25,101.1,0,0,13-3,28-8,117.1-41,268.2-76.1,280.2-66.1,6,5,6,15,0,16-1,0-30,7-62.1,16-106.1,26-293.2,94.1-437.4,159.1-55,25-188.2,92.1-245.2,124.1-56,31-60,33-67.1,31-9-2-15-16-11-29,11-33,46-54,216.2-127.1,75.1-32,169.1-70.1,237.2-94.1l32-11v-16c-2-24,16-92.1,43-166.1,4-11,7-20,5-19-1,0-14,16-27,35-71.1,103.1-139.1,173.1-203.2,207.2-56,29-102.1,22-145.1-22-21-22-32-41-40-73.1-20-80.1,19-219.2,97.1-352.3,80.1-136.1,228.2-285.2,333.3-336.3,54-25,89.1-23,108.1,7,7,11,8,15,8,38s-2,31-9,54c-19,58-77.1,169.1-90.1,173.1-7,2-12,0-12-8s9-20,21-37c42-66.1,75.1-148.1,75.1-188.2s-4-27-28-25c-69.1,5-227.2,155.1-326.3,310.3-60,94.1-98.1,182.1-119.1,277.2-7,30-8,43-8,76.1s0,42,6,53c8,16,22,22,49,22,39,0,79.1-17,129.1-55,57-45,131.1-130.1,190.2-220.2,23-35,48-78.1,46-79.1-2-2-143.1,60-164.1,73.1-30,18-28,18-38,8-11-10-16-25-12-34,7-14,27-27,70.1-44,68.1-28,155.1-56,266.2-87.1,28-8,51-14,53-16,0,0,7-16,12-32,33-93.1,80.1-201.2,94.1-220.2,7-10,16-7,23,9,9,17,7,28-9,67.1-16,37-63.1,161.1-62.1,162.1,0,0,23-4,51-9,28-6,69.1-13,93.1-16,24-4,48-8,53-8,8-2,9-3,15-20,17-46,89.1-232.2,111.1-284.2,23-54,43-90.1,49-91.1h7l3,3ZM1678,842.4c-25,1-46,4-47,7-2,1-13,31-24,66.1-38,118.1-66.1,227.2-83.1,324.3-9,54-12,114.1-4,129.1,4,9,5,9,26,9s43-6,80.1-29c72.1-44,193.2-153.1,246.2-221.2,40-50,72.1-107.1,80.1-144.1,13-50-7-91.1-54-115.1-51-25-118.1-33-220.2-25h0v-1ZM676.2,624.2c23,7,42,31,46,58,4,22-1,51-17,82.1-21,43-90.1,148.1-104.1,156.1-4,3-7,3-9,0-3-4-2-6,2-11,10-11,54-80.1,71.1-112.1,26-46,43-106.1,35-121.1-3-5-7-7-21-7-25,0-57,12-111.1,40-85.1,44-150.1,92.1-205.2,148.1-32,33-43,49-39,58,1,5,45,28,78.1,41,14,6,51,19,83.1,31,98.1,35,135.1,59,154.1,103.1,9,19,9,22,9,58s0,40-9,64.1c-17,47-50,99.1-85.1,136.1-68.1,70.1-171.1,127.1-259.2,142.1-47,8-88.1,1-119.1-20-20-13-46-42-54-60-15-35-16-79.1-2-122.1,9-27,34-79.1,51-104.1,17-24,59-67.1,80.1-82.1,20-13,30-14,36-3,4,10,0,16-12,23-19,9-68.1,58-86.1,85.1-38,58-56,134.1-44,182.1,9,37,20,44,65.1,44s37-2,59-8c114.1-32,269.2-139.1,326.3-228.2,18-27,26-48,28-71.1,2-25-2-39-18-55-24-25-65.1-42-219.2-91.1-46-15-56-20-75.1-37-25-25-35-59-25-91.1,18-57,100.1-131.1,199.2-181.1,84.1-42,151.1-58,190.2-46h0l1-1Z" fill="#003f5f"/>
</svg>